<svg xmlns="http://www.w3.org/2000/svg" width="512" height="512" viewBox="0 0 64 64">
  <defs>
    <linearGradient id="g" x1="0" x2="1" y1="0" y2="1">
      <stop offset="0" stop-color="#22c55e"/><stop offset="1" stop-color="#0ea5e9"/>
    </linearGradient>
  </defs>
  <rect width="64" height="64" rx="14" fill="#0b0f14"/>
  <g fill="url(#g)">
    <path d="M16 28c0-8 6-14 14-14s14 6 14 14-6 14-14 14h-3a3 3 0 0 0 0 6h3c11 0 20-9 20-20S41 8 30 8 10 17 10 28c0 6 3 11 7 14a3 3 0 1 0 4-4c-3-2-5-6-5-10z"/>
    <circle cx="44" cy="46" r="4"/>
  </g>
</svg>