<?xml version="1.0" encoding="UTF-8"?>
<svg id="Layer_1" xmlns="http://www.w3.org/2000/svg" version="1.1" viewBox="0 0 841.54 660.62">
  <!-- Generator: Adobe Illustrator 29.7.1, SVG Export Plug-In . SVG Version: 2.1.1 Build 8)  -->
  <defs>
    <style>
      .st0 {
        fill: #05a9eb;
      }

      .st1 {
        fill: #0b0f14;
      }
    </style>
  </defs>
  <rect class="st1" width="841.54" height="660.62"/>
  <g>
    <path class="st0" d="M361.85,458.5h-32.01c-2.71-7.59-9.94-13.03-18.46-13.03-10.84,0-19.62,8.78-19.62,19.62s8.78,19.62,19.62,19.62c8.59,0,15.87-5.53,18.53-13.22h27.64c3.08,0,7.1.89,9.67,2.6,4.76,3.16,10.41,8.68,10.36,13.8l1,42.77c.08,3.44-3.26,6.82-5.68,9.29-5.59,5.69-10.74,8.91-15.75,9.84-11.35,2.11-20.91.44-28.41-4.97-14.53-10.49-17.91-32.18-18.24-34.62-.48-3.44-3.34-6.39-6.82-6.29-29.57.86-45.28-9.78-57.07-24.63-18.28-23.03-13.41-54.86-12.8-58.41.47-2.74-.63-5.47-2.88-7.12-20.58-15.06-32-32.27-33.95-51.13-3.15-30.52,14.76-52.93,21.85-59.28,2.25-2.02,2.46-5.58,1.08-8.28-28.18-55.18,19.67-83.86,25.21-86.95,2.1-1.17,3.52-3.3,3.8-5.69,8.98-77.78,79.18-73.64,87.16-72.88,3.3.32,6.46-1.3,7.59-4.43,13.97-38.67,37.74-43.6,58.92-45.19,11.83-.88,23.18,3.04,31.99,11.07,9.21,8.4,14.2,20.47,14.2,32.93v76.82c0,7.59,2.73,14.94,7.68,20.7l42.16,48.97c8.12,9.43,19.91,13.84,32.35,13.84h42.53c1.81,9.39,10.06,16.48,19.98,16.48,11.24,0,20.36-9.11,20.36-20.36s-9.11-20.36-20.36-20.36c-7.96,0-14.83,4.58-18.18,11.23h-44.32c-8.65,0-16.85-2.76-22.5-9.32l-42.16-48.97c-2.92-3.4-4.53-7.73-4.53-12.22v-76.76c0-15.7-6.15-30.91-17.52-41.74-11.6-11.05-26.78-16.48-42.64-15.29-24.99,1.87-52.53,9.34-68.65,49.71-8.58-.31-26.72.2-45.07,8.01-20.27,8.63-47.33,28.06-51.55,73.53-5.68,3.54-18.29,12.47-27.48,26.85-9.63,15.09-17.6,39.74-2.21,72.52-7.71,9.44-25.77,29.04-21.77,66.44,2.33,21.77,11.64,40.64,35.51,57.35-1.41,11.4-2.82,42.3,16.02,66.02,13.47,16.97,32.68,29.33,62.01,29.2,1.94,9.2,7.6,27.9,22.7,38.79,7.68,5.54,16.67,8.33,26.81,8.33,3.71,0,7.57-.37,11.58-1.12,7.83-1.46,15.34-5.98,22.97-13.85,4.55-4.69,9.18-13.85,9.03-20.38l-.95-40.75c-.35-14.94-19.12-29.09-28.73-29.09Z"/>
    <path class="st0" d="M263.35,292.29c-11.36,0-20.57,9.21-20.57,20.57s9.21,20.57,20.57,20.57c4.55,0,8.75-1.5,12.15-4l14.55,12.15c4.66,3.89,10.57,6.03,16.63,6.03h.01l52.71-.03h.32c9.57-.49,19.81-7.46,19.81-17.05v-5c0-6.52-3.52-11.76-5.61-14.3l-7.77-8.25-38.75-40.13c-5.55-5.74-8.6-13.31-8.6-21.29v-14.91c8.71-2.76,15.02-10.9,15.02-20.51,0-11.88-9.63-21.52-21.52-21.52s-21.52,9.63-21.52,21.52c0,9.62,6.31,17.76,15.02,20.51v14.91c0,11.37,4.35,22.14,12.25,30.32l38.71,40.07,7.27,7.69c1.56,1.94,2.52,4.18,2.52,5.87v5c0,1.02-3.47,3.8-7.33,4.05l-52.53.03h0c-3.03,0-5.98-1.07-8.3-3.01l-15.34-12.81c.56-1.88.88-3.87.88-5.93,0-11.36-9.21-20.57-20.57-20.57Z"/>
    <path class="st0" d="M264.12,421.88c8.06,0,15-4.7,18.29-11.5h69.07c8.8,0,17.41-3.56,23.61-9.76l51.75-51.73c5.17-5.17,8.12-12.32,8.09-19.61l-.09-23.76c-.03-7.72-2.94-15.11-8.18-20.8l-34.55-37.5-.2-.21c-6.44-6.39-9.98-14.89-9.98-23.93v-40.38c8.57-3.06,14.7-11.24,14.7-20.86,0-12.23-9.92-22.15-22.15-22.15s-22.15,9.92-22.15,22.15c0,10.32,7.06,18.99,16.6,21.45v39.79c0,12.48,4.87,24.21,13.72,33.05l34.46,37.39c3.04,3.3,4.72,7.58,4.74,12.04l.09,23.76c.02,3.91-1.51,7.59-4.28,10.36l-51.75,51.73c-3.79,3.79-9.04,5.96-14.42,5.96h-67.46c-1.92-9.23-10.1-16.16-19.9-16.16-11.23,0-20.33,9.1-20.33,20.33s9.1,20.33,20.33,20.33Z"/>
    <path class="st0" d="M487.3,495.41c-.34.13-.67.26-1,.41-.14.06-.28.14-.42.2-6.84,3.28-11.57,10.24-11.57,18.33,0,10.54,8.01,19.21,18.27,20.25.66.07,1.34.11,2.02.11,8.53,0,15.83-5.26,18.85-12.71.18-.45.35-.9.5-1.37.64-1.97.98-4.07.98-6.26,0-8.67-5.43-16.07-13.07-19l-.03-52.3c.08-4.55,1.86-8.85,5.02-12.13l21.92-21.71c2.41-2.5,5.77-3.97,9.24-4.05l30.63-.29c2.4,8.57,10.25,14.86,19.59,14.86,11.24,0,20.35-9.11,20.35-20.35s-9.11-20.36-20.35-20.36c-8.6,0-15.93,5.33-18.92,12.86l-31.13.28h-.23c-6.96.09-13.72,3.02-18.54,8.03l-21.92,21.71c-5.46,5.67-8.54,13.13-8.66,20.99v.06l.03,51.91c-.26.07-.51.16-.76.24-.27.09-.54.19-.8.29Z"/>
    <path class="st0" d="M644.35,343.29l-11.68-9.22h0c9.91-6.54,17.59-16.32,20.97-27.8,8.12-27.65-2.85-59.75-4.06-63.15-19.44-68.45-59.43-103.85-89.58-121.51-12.67-7.42-24.63-12.4-34.6-15.73-.02-12.22-9.94-22.12-22.15-22.12-.47,0-.95,0-1.42.04-11.25.7-20.31,10.02-20.72,21.28-.38,10.33,6.32,19.15,15.64,22.01v51.14c0,22.78,18.64,41.41,41.41,41.41h9.85c2.78,8.64,10.87,14.9,20.44,14.9,11.86,0,21.47-9.61,21.47-21.47s-9.61-21.47-21.47-21.47c-9.61,0-17.75,6.32-20.48,15.03h-10.57c-15.27,0-27.64-12.38-27.64-27.64v-51.91c4.87-1.5,9.03-4.63,11.83-8.76,4.59,1.53,9.64,3.45,15,5.84,5.36,2.39,11.03,5.25,16.86,8.66,40.89,23.96,69.06,62.32,83.7,114.05l.15.47c.11.3,11.06,30.82,3.88,55.25-2.92,9.93-10.19,18.15-19.4,22.85-4.77,2.46-10.06,3.98-15.53,4.31-.74.05-1.49.07-2.24.07h-66.43c-16.73,0-31.9,5.93-41.61,16.25l-51.81,54.56c-7.51,7.99-11.65,17.48-11.65,26.82l-.43,111.21c0,13.03-1.12,25.78-13.45,34.92l-7.73,5.53-9.55,4.81c-.86.44-1.42,1.32-1.42,2.29,0,5.5,5.65,9.18,10.67,6.95l2.92-1.3c3.24-1.44,6.3-3.25,9.12-5.4l1.51-1.15c1.63-.95,3.17-2.06,4.56-3.34,14.4-13.25,16.37-26.97,16.36-43.4l.44-111.21c0-5.83,2.96-12.33,8.1-17.79l51.8-54.57c7.29-7.74,19.01-12.18,32.17-12.18h66.43s.09-.01.14-.01h16.23c1.47.36,2.86.83,4.17,1.38h0c9.48,4.03,14.82,12.51,15.97,14.5.06.09.1.17.13.23.04.06.07.11.08.14.02.03.03.05.03.05,2.87,5.03,3.52,10.51,3.44,14.76-.21,11.49-4.19,88.52-70.09,148.58l-.3-37.81c7.65-2.88,12.95-10.57,12.14-19.4-.81-8.78-7.83-15.95-16.59-16.93-11.37-1.26-21,7.6-21,18.72,0,8.15,5.2,15.08,12.45,17.7l.38,48.62c-11.88,9.29-24.96,18.95-40.49,26.74-11.55,5.8-24.68,10.15-38.47,14.79-2.65.89-4.43,3.37-4.43,6.16,0,4.44,4.36,7.58,8.58,6.16,14.92-5.01,29.45-9.95,42.56-16.67,11.69-6,22.14-13.61,32.37-20.95,2.19-1.56,4.35-3.16,6.47-4.79,2.19-1.68,4.34-3.4,6.46-5.14,19.85-16.4,36.54-35.65,49.93-57.67,29.68-48.79,32.78-94.89,33.02-107.86.24-12.48-4.32-23.43-12.84-30.84Z"/>
  </g>
</svg>